
<svg xmlns="http://www.w3.org/2000/svg" viewBox="0 0 1440 320">
        <path
          fill="#ffffff"
          fill-opacity="1"
          d="M0,128L24,144C48,160,96,192,144,224C192,256,240,288,288,256C336,224,384,128,432,117.3C480,107,528,181,576,197.3C624,213,672,171,720,154.7C768,139,816,149,864,165.3C912,181,960,203,1008,181.3C1056,160,1104,96,1152,101.3C1200,107,1248,181,1296,197.3C1344,213,1392,171,1416,149.3L1440,128L1440,320L1416,320C1392,320,1344,320,1296,320C1248,320,1200,320,1152,320C1104,320,1056,320,1008,320C960,320,912,320,864,320C816,320,768,320,720,320C672,320,624,320,576,320C528,320,480,320,432,320C384,320,336,320,288,320C240,320,192,320,144,320C96,320,48,320,24,320L0,320Z"
          style="--darkreader-inline-fill:  #181a1b;"
          data-darkreader-inline-fill=""></path>
      </svg>