<svg width="150" height="32" viewBox="0 0 150 32" fill="none" xmlns="http://www.w3.org/2000/svg">
<path fill-rule="evenodd" clip-rule="evenodd" d="M150 9.14285L147.744 10.5714C145.489 12.2857 140.977 15.1428 136.466 12.8571C131.955 10.5714 127.162 3.14284 122.65 2.2857C118.139 1.42856 113.628 7.71428 109.117 11.4286C104.605 15.1428 100.094 16.8571 95.5827 15.1428C90.7895 13.7143 86.2782 9.14285 81.7669 5.42856C77.2556 1.42856 72.7444 -1.42858 68.2331 2.28571C63.7218 5.99999 59.2105 16.8571 54.4173 18.2857C49.906 19.7143 45.3947 12.2857 40.8835 12.2857C36.3722 12.2857 31.8609 19.7143 27.3496 19.7143C22.8383 19.7143 18.0451 12.2857 13.5338 7.71428C9.02256 3.14285 4.51128 1.42857 2.25564 0.857144L0 0L2.76072e-06 32H2.25564C4.51128 32 9.02256 32 13.5338 32C18.0451 32 22.8383 32 27.3496 32C31.8609 32 36.3722 32 40.8835 32C45.3947 32 49.906 32 54.4173 32C59.2105 32 63.7218 32 68.2331 32C72.7444 32 77.2556 32 81.7669 32C86.2782 32 90.7895 32 95.5827 32C100.094 32 104.605 32 109.117 32C113.628 32 118.139 32 122.65 32C127.162 32 131.955 32 136.466 32C140.977 32 145.489 32 147.744 32H150V9.14285Z" fill="#0099FF"/>
</svg>
